<svg width="142" height="60" viewBox="0 0 142 60" fill="none" xmlns="http://www.w3.org/2000/svg">
<path fill-rule="evenodd" clip-rule="evenodd" d="M121.288 56.1493C135.87 50.9173 143.384 35.0073 138.069 20.6133C132.754 6.21931 116.624 -1.20794 102.041 4.02408C87.4578 9.2561 79.9445 25.1661 85.2594 39.5601C90.5742 53.9541 106.705 61.3814 121.288 56.1493Z" fill="#3391EC"/>
<path fill-rule="evenodd" clip-rule="evenodd" d="M134.305 15.0559C134.569 14.9613 134.833 14.8721 135.098 14.7881C136.292 16.5705 137.295 18.5181 138.069 20.6133C142.381 32.2914 138.249 44.9674 128.748 52.1292C125.504 49.7305 122.906 46.4053 121.414 42.3666C117.329 31.3032 123.101 19.0758 134.305 15.0559Z" fill="#0075E7"/>
<path fill-rule="evenodd" clip-rule="evenodd" d="M84.5893 32.8926C95.7935 28.8728 108.188 34.5829 112.273 45.6463C113.767 49.6925 113.943 53.8944 113.016 57.7935C101.044 58.3562 89.5792 51.2593 85.2594 39.5601C84.4861 37.4659 83.9844 35.3397 83.7365 33.2189C84.0175 33.1045 84.3016 32.9959 84.5893 32.8926Z" fill="#0075E7"/>
<path fill-rule="evenodd" clip-rule="evenodd" d="M102.041 4.02408C109.039 1.51328 116.394 1.91786 122.738 4.60869C121.784 12.3101 116.588 19.2145 108.695 22.0461C100.803 24.8777 92.3197 22.8814 86.5665 17.5867C89.6724 11.5048 95.0425 6.53488 102.041 4.02408Z" fill="#0075E7"/>
<path fill-rule="evenodd" clip-rule="evenodd" d="M135.261 17.5387C136.425 17.1212 137.603 16.8234 138.783 16.6389C139.293 17.6504 139.752 18.7004 140.153 19.7871C144.383 31.244 141.105 43.5885 132.796 51.5724C128.839 49.4731 125.618 45.9863 123.959 41.4931C120.375 31.7886 125.436 21.0639 135.261 17.5387Z" fill="#3391EC"/>
<path fill-rule="evenodd" clip-rule="evenodd" d="M85.5458 35.3754C95.3713 31.8503 106.241 36.8596 109.825 46.564C111.499 51.0995 111.286 55.8579 109.581 60C97.9198 59.2293 87.2471 51.8285 82.9889 40.2962C82.5947 39.2288 82.2658 38.1537 82 37.0751C83.0978 36.401 84.2824 35.8287 85.5458 35.3754Z" fill="#3391EC"/>
<path fill-rule="evenodd" clip-rule="evenodd" d="M101.198 1.8144C107.577 -0.474045 114.229 -0.525518 120.271 1.25359C120.619 9.18296 115.788 16.7539 107.835 19.6074C99.8551 22.4703 91.1867 19.7043 86.2919 13.366C89.7593 8.22233 94.8625 4.08754 101.198 1.8144Z" fill="#3391EC"/>
<path d="M1.0035 30.552C2.8755 30.152 4.3795 29.72 5.5155 29.256C6.6675 28.792 7.5155 28.248 8.0595 27.624C8.6035 27 8.8755 26.256 8.8755 25.392C8.8755 24.432 8.7395 23.504 8.4675 22.608C8.2115 21.712 7.8595 20.992 7.4115 20.448C6.9635 19.888 6.4755 19.608 5.9475 19.608C5.6435 19.608 5.3555 19.72 5.0835 19.944C4.8275 20.152 4.6195 20.416 4.4595 20.736C4.3155 21.056 4.2435 21.352 4.2435 21.624C4.2435 21.848 4.2915 22.032 4.3875 22.176C4.6595 22.496 5.2595 22.712 6.1875 22.824C7.1315 22.92 8.4515 22.968 10.1475 22.968H12.4755L12.6915 24.984L12.4755 27L9.3795 27.024C7.3315 27.024 5.6995 26.864 4.4835 26.544C3.2675 26.208 2.4275 25.52 1.9635 24.48C1.6755 23.824 1.5315 23.104 1.5315 22.32C1.5315 21.328 1.7395 20.352 2.1555 19.392C2.5715 18.416 3.1395 17.616 3.8595 16.992C4.5955 16.368 5.4035 16.056 6.2835 16.056C7.2595 16.056 8.1475 16.472 8.9475 17.304C9.7635 18.136 10.4035 19.24 10.8675 20.616C11.3315 21.976 11.5635 23.432 11.5635 24.984C11.5635 26.52 11.1875 27.904 10.4355 29.136C9.6835 30.384 8.6115 31.424 7.2195 32.256C5.8275 33.088 4.1715 33.68 2.2515 34.032L1.0035 30.552ZM12.1612 22.968H13.3613C14.8973 22.968 15.9853 22.84 16.6253 22.584C17.2813 22.328 17.6093 21.952 17.6093 21.456C17.6093 21.152 17.4333 20.52 17.0813 19.56C16.7293 18.584 16.4653 17.912 16.2893 17.544L19.0733 16.008C19.3933 16.68 19.7133 17.576 20.0333 18.696C20.3693 19.816 20.5373 20.808 20.5373 21.672C20.5373 23.384 19.9853 24.704 18.8813 25.632C17.7773 26.544 16.1533 27 14.0093 27H12.1612V22.968ZM14.3933 10.992L16.5053 13.128L14.3933 15.264L13.6733 14.544C12.7293 13.6 12.2572 13.128 12.2572 13.128L14.3933 10.992ZM18.5693 10.992L20.6813 13.128L18.5693 15.264L17.8493 14.544C16.9053 13.6 16.4333 13.128 16.4333 13.128L18.5693 10.992ZM25.7631 8.88C25.9551 10.272 26.0991 12.096 26.1951 14.352C26.3071 16.592 26.3631 18.656 26.3631 20.544C26.3631 21.184 26.4191 21.68 26.5311 22.032C26.6431 22.368 26.8351 22.608 27.1071 22.752C27.3791 22.896 27.7791 22.968 28.3071 22.968H28.4031L28.6191 24.984L28.4031 27H28.3071C26.5151 27 25.2111 26.48 24.3951 25.44C23.5791 24.384 23.1631 22.808 23.1471 20.712C23.0831 16.056 22.8511 12.36 22.4511 9.624L25.7631 8.88ZM28.2165 22.968H28.3365C29.6005 22.968 30.5765 22.912 31.2645 22.8C31.9525 22.688 32.4325 22.512 32.7045 22.272C32.9925 22.032 33.1525 21.704 33.1845 21.288C33.2325 20.632 33.1525 19.76 32.9445 18.672L35.6805 18.144C35.9045 19.344 36.0165 20.672 36.0165 22.128C36.0485 22.32 36.1925 22.512 36.4485 22.704C36.7205 22.88 37.1285 22.968 37.6725 22.968H37.7925L38.0085 24.984L37.7925 27H37.6725C36.9365 27 36.2565 26.816 35.6325 26.448C35.0245 26.064 34.5125 25.568 34.0965 24.96L34.7445 25.104C34.2485 25.776 33.5205 26.264 32.5605 26.568C31.6005 26.856 30.1925 27 28.3365 27H28.2165V22.968ZM28.0485 28.968L30.1605 31.104L28.0485 33.24L27.3285 32.52C26.8485 32.056 26.3765 31.584 25.9125 31.104L28.0485 28.968ZM32.2245 28.968L34.3365 31.104L32.2245 33.24L31.5045 32.52C31.0245 32.056 30.5525 31.584 30.0885 31.104L32.2245 28.968ZM55.9281 22.968L56.1441 24.984L55.9281 27H55.6641C52.0481 26.984 49.7921 25.64 48.8961 22.968L50.9121 21.072C50.9921 21.328 51.1841 21.6 51.4881 21.888C51.7921 22.176 52.1921 22.432 52.6881 22.656C53.2001 22.864 53.7761 22.968 54.4161 22.968H55.9281ZM37.5201 22.968H39.1761C41.0481 22.968 42.7921 22.776 44.4081 22.392C46.0241 21.992 47.8001 21.28 49.7361 20.256C51.1441 19.504 52.1041 19.056 52.6161 18.912L52.7361 21.96C51.9041 21.816 51.1041 21.616 50.3361 21.36C49.5681 21.088 48.6321 20.672 47.5281 20.112C46.8881 19.792 46.2401 19.544 45.5841 19.368C44.9441 19.176 44.3681 19.08 43.8561 19.08C43.2801 19.08 42.7681 19.232 42.3201 19.536C41.8881 19.84 41.5441 20.176 41.2881 20.544L39.0561 18.888C40.3041 16.408 41.9521 15.168 44.0001 15.168C44.6881 15.168 45.3441 15.28 45.9681 15.504C46.6081 15.728 47.5361 16.152 48.7521 16.776C49.6641 17.256 50.4401 17.616 51.0801 17.856C51.7361 18.096 52.4561 18.296 53.2401 18.456L53.3601 22.104C52.9441 22.216 52.1761 22.592 51.0561 23.232L50.1441 23.712C48.4801 24.576 47.0641 25.24 45.8961 25.704C44.7281 26.168 43.5521 26.496 42.3681 26.688C41.1841 26.88 39.8001 26.984 38.2161 27H37.5201V22.968ZM43.3281 31.104C43.3281 31.104 43.8561 30.576 44.9121 29.52L45.7281 28.704L48.1041 31.104L45.7281 33.48L43.3281 31.104ZM55.6847 22.968H56.8847C58.4207 22.968 59.5087 22.84 60.1487 22.584C60.8047 22.328 61.1327 21.952 61.1327 21.456C61.1327 21.152 60.9567 20.52 60.6047 19.56C60.2527 18.584 59.9887 17.912 59.8127 17.544L62.5967 16.008C62.9167 16.68 63.2367 17.576 63.5567 18.696C63.8927 19.816 64.0607 20.808 64.0607 21.672C64.0607 23.384 63.5087 24.704 62.4047 25.632C61.3007 26.544 59.6767 27 57.5327 27H55.6847V22.968ZM55.9727 28.968L58.0847 31.104L55.9727 33.24L55.2527 32.52C54.7727 32.056 54.3007 31.584 53.8367 31.104L55.9727 28.968ZM60.1487 28.968L62.2607 31.104L60.1487 33.24L59.4287 32.52C58.9487 32.056 58.4767 31.584 58.0127 31.104L60.1487 28.968ZM67.0065 22.32C67.5505 22.576 68.1265 22.808 68.7345 23.016C69.3585 23.208 70.0945 23.304 70.9425 23.304C71.7905 23.288 72.4945 23.2 73.0545 23.04C73.6145 22.864 73.9825 22.68 74.1585 22.488C74.1905 22.248 74.0785 21.88 73.8225 21.384C73.5825 20.872 73.0865 20.232 72.3345 19.464C71.5985 18.68 70.5425 17.832 69.1665 16.92L71.0865 13.368C72.9585 14.664 74.4465 16.12 75.5505 17.736C76.6705 19.336 77.2305 20.872 77.2305 22.344C77.2305 23.032 77.1025 23.664 76.8465 24.24C76.4465 25.168 75.7265 25.88 74.6865 26.376C73.6625 26.872 72.5425 27.12 71.3265 27.12C69.8865 27.12 68.6865 26.896 67.7265 26.448C66.7825 26 66.0705 25.568 65.5905 25.152L67.0065 22.32Z" fill="#0075E7"/>
<path d="M2.4834 51.925C2.55007 51.425 2.5834 50.5792 2.5834 49.3875C2.5834 48.2458 2.55007 47.05 2.4834 45.8C2.42507 44.55 2.3584 43.6958 2.2834 43.2375L3.6584 42.925C3.72507 43.375 3.78757 44.2083 3.8459 45.425C3.90423 46.6333 3.9334 47.8167 3.9334 48.975C3.9334 50.35 3.88757 51.3833 3.7959 52.075L2.4834 51.925ZM7.88516 52.05C7.18516 52.05 6.59349 51.95 6.11016 51.75C5.62682 51.5417 5.25182 51.325 4.98516 51.1L5.59766 49.95C5.88932 50.1 6.19766 50.2333 6.52266 50.35C6.85599 50.4583 7.26016 50.5125 7.73516 50.5125C8.18516 50.5125 8.55182 50.4583 8.83516 50.35C9.12682 50.2417 9.31849 50.1208 9.41016 49.9875C9.42682 49.9208 9.43516 49.8625 9.43516 49.8125C9.43516 49.4875 9.23099 49.0542 8.82266 48.5125C8.41432 47.9708 7.75182 47.3792 6.83516 46.7375L7.61016 45.3375C8.56016 46.0292 9.31016 46.7708 9.86016 47.5625C10.4185 48.3458 10.6977 49.0917 10.6977 49.8C10.6977 50.1083 10.6352 50.4083 10.5102 50.7C10.3268 51.1333 9.98932 51.4667 9.49766 51.7C9.01432 51.9333 8.47682 52.05 7.88516 52.05ZM15.0292 52C14.4792 52 14.0375 51.8042 13.7042 51.4125C13.3792 51.0125 13.1042 50.4458 12.8792 49.7125L13.8667 49.1125C13.9834 49.5792 14.1292 49.9083 14.3042 50.1C14.4792 50.2917 14.7209 50.3875 15.0292 50.3875H15.1292L15.2167 51.1875L15.1292 52H15.0292ZM10.1167 54.2625C10.6584 54.0542 11.1542 53.8 11.6042 53.5C12.0542 53.2 12.4084 52.8958 12.6667 52.5875C12.925 52.2792 13.0542 52.0042 13.0542 51.7625C13.0542 51.5792 13.0042 51.275 12.9042 50.85C12.8042 50.4167 12.6709 49.875 12.5042 49.225C12.4375 48.9917 12.3917 48.8167 12.3667 48.7L13.6167 48.2125C13.8084 48.7958 13.9625 49.4167 14.0792 50.075C14.2042 50.725 14.2667 51.2875 14.2667 51.7625C14.2667 52.5542 13.9417 53.2917 13.2917 53.975C12.65 54.6583 11.8084 55.2083 10.7667 55.625L10.1167 54.2625ZM14.9978 50.3875H15.1728C16.5061 50.3875 17.4978 50.2833 18.1478 50.075C18.7978 49.8667 19.1686 49.4917 19.2603 48.95C19.2603 48.5083 19.1936 48.0625 19.0603 47.6125C18.9353 47.1625 18.7561 46.7917 18.5228 46.5C18.2978 46.2 18.0353 46.05 17.7353 46.05C17.5603 46.05 17.3936 46.1125 17.2353 46.2375C17.0853 46.3542 16.9644 46.5042 16.8728 46.6875C16.7811 46.8625 16.7353 47.0333 16.7353 47.2C16.7353 47.35 16.7728 47.475 16.8478 47.575C16.9728 47.75 17.2019 47.8917 17.5353 48C17.8769 48.1 18.2603 48.15 18.6853 48.15C18.9769 48.15 19.2644 48.125 19.5478 48.075V49.525C19.1144 49.6083 18.7228 49.65 18.3728 49.65C17.7894 49.65 17.2686 49.5542 16.8103 49.3625C16.3603 49.1625 16.0353 48.8667 15.8353 48.475C15.6853 48.1833 15.6103 47.8333 15.6103 47.425C15.6103 46.975 15.7061 46.5333 15.8978 46.1C16.0978 45.6667 16.3686 45.3125 16.7103 45.0375C17.0603 44.7625 17.4394 44.625 17.8478 44.625C18.3478 44.625 18.7936 44.8333 19.1853 45.25C19.5769 45.6583 19.8728 46.1875 20.0728 46.8375C20.2811 47.4875 20.3644 48.1542 20.3228 48.8375C20.2811 49.8458 19.8311 50.625 18.9728 51.175C18.1144 51.725 16.8478 52 15.1728 52H14.9978V50.3875ZM17.6603 41.65L18.3728 42.3625L18.7228 42.7125L17.6603 43.7875L16.5978 42.7125L17.6603 41.65ZM33.3548 52C32.6798 52 32.1673 51.75 31.8173 51.25C31.4673 50.75 31.2798 50.0667 31.2548 49.2L32.0423 49.05C32.0673 49.425 32.1173 49.7042 32.1923 49.8875C32.2756 50.0708 32.4048 50.2 32.5798 50.275C32.7548 50.35 33.0131 50.3875 33.3548 50.3875H33.5048L33.5923 51.1875L33.5048 52H33.3548ZM28.2548 55.2125C27.5965 55.2125 26.9923 55.0792 26.4423 54.8125C25.9006 54.5458 25.4673 54.1667 25.1423 53.675C24.8256 53.1833 24.6673 52.6083 24.6673 51.95C24.6673 51.475 24.7506 50.95 24.9173 50.375C25.084 49.8 25.284 49.275 25.5173 48.8L26.6048 49.3125C26.3881 49.7792 26.2215 50.2 26.1048 50.575C25.9881 50.95 25.9298 51.325 25.9298 51.7C25.9298 52.2667 26.1423 52.725 26.5673 53.075C26.9923 53.425 27.5548 53.6 28.2548 53.6C30.0381 53.6 30.9006 52.6792 30.8423 50.8375C30.7923 49.2458 30.7215 47.7583 30.6298 46.375C30.5381 44.9917 30.4465 43.9458 30.3548 43.2375L31.7173 42.925C31.8506 44.0417 31.9756 46.6583 32.0923 50.775C32.1256 52.1667 31.8048 53.2542 31.1298 54.0375C30.4548 54.8208 29.4965 55.2125 28.2548 55.2125ZM43.5943 52C43.1027 52 42.6735 51.8542 42.3068 51.5625C41.9485 51.2625 41.6777 50.8333 41.4943 50.275C41.4027 49.9833 41.2527 49.2792 41.0443 48.1625L42.2068 47.85C42.3068 48.3917 42.386 48.8083 42.4443 49.1C42.5027 49.3833 42.561 49.6 42.6193 49.75C42.686 49.9583 42.7985 50.1167 42.9568 50.225C43.1152 50.3333 43.3277 50.3875 43.5943 50.3875H43.6693L43.7443 51.1875L43.6568 52H43.5943ZM40.3443 50.3875H40.3818C40.6652 50.3875 40.9235 50.3125 41.1568 50.1625C41.3985 50.0125 41.5277 49.8375 41.5443 49.6375L42.5318 49.7625C42.4985 50.1708 42.3777 50.5458 42.1693 50.8875C41.9693 51.2292 41.711 51.5 41.3943 51.7C41.086 51.9 40.7485 52 40.3818 52H40.3443V50.3875ZM36.9818 50.3875H37.0318C37.4735 50.3875 37.8277 50.1375 38.0943 49.6375C38.261 49.3125 38.4027 48.8083 38.5193 48.125L39.6943 48.175C39.5943 48.675 39.5443 49.0792 39.5443 49.3875C39.5443 50.0542 39.8193 50.3875 40.3693 50.3875H40.4068L40.4818 51.1875L40.4068 52H40.3693C39.911 52 39.5318 51.8708 39.2318 51.6125C38.9318 51.3542 38.7277 50.9917 38.6193 50.525L38.9068 50.5125C38.6818 50.9708 38.4068 51.3333 38.0818 51.6C37.7652 51.8667 37.411 52 37.0193 52H36.9818V50.3875ZM33.4193 52L33.3318 51.1875L33.4193 50.3875H33.4693C33.7443 50.3875 34.011 50.325 34.2693 50.2C34.5277 50.075 34.7235 49.9208 34.8568 49.7375C35.0318 49.5208 35.1652 49.2833 35.2568 49.025C35.3568 48.7667 35.4402 48.4958 35.5068 48.2125L36.6818 48.3375C36.6818 48.3458 36.661 48.4417 36.6193 48.625C36.4943 49.1083 36.4318 49.4667 36.4318 49.7C36.4318 49.9333 36.4777 50.1083 36.5693 50.225C36.661 50.3333 36.8068 50.3875 37.0068 50.3875H37.0318L37.1193 51.1875L37.0318 52H36.9818C36.6152 52 36.2985 51.9 36.0318 51.7C35.7735 51.4917 35.6027 51.2167 35.5193 50.875C35.2527 51.2417 34.9443 51.5208 34.5943 51.7125C34.2443 51.9042 33.8652 52 33.4568 52H33.4193ZM43.5137 50.3875H44.1762C44.7928 50.3875 45.2387 50.3167 45.5137 50.175C45.7887 50.025 45.9262 49.8 45.9262 49.5C45.9262 49.3083 45.8345 48.9375 45.6512 48.3875C45.4762 47.8375 45.3428 47.4625 45.2512 47.2625L46.4262 46.625C46.5845 46.9583 46.747 47.4167 46.9137 48C47.0887 48.5833 47.1762 49.0917 47.1762 49.525C47.1762 50.3333 46.9178 50.95 46.4012 51.375C45.8845 51.7917 45.1428 52 44.1762 52H43.5137V50.3875ZM45.4512 43.9125L46.1637 44.625L46.5137 44.975L45.4512 46.05L44.3887 44.975L45.4512 43.9125ZM55.5478 51.125C55.0144 51.3 54.4978 51.3875 53.9978 51.3875C53.2728 51.3875 52.6811 51.2167 52.2228 50.875C51.7644 50.525 51.5353 50.05 51.5353 49.45C51.5353 48.7167 51.8311 48.1042 52.4228 47.6125C53.0144 47.1125 53.8103 46.6833 54.8103 46.325L55.0978 47.775C54.5061 47.9083 53.9728 48.1125 53.4978 48.3875C53.0311 48.6542 52.7853 48.9125 52.7603 49.1625C52.7436 49.3625 52.8436 49.5292 53.0603 49.6625C53.2769 49.7958 53.5686 49.8625 53.9353 49.8625C54.3436 49.8625 54.7769 49.775 55.2353 49.6L55.5478 51.125ZM57.2103 52C56.4936 52 55.9436 51.7792 55.5603 51.3375C55.1853 50.8875 54.9353 50.1458 54.8103 49.1125L54.3853 45.7L55.6978 45.4375C55.7228 45.6208 55.7394 45.7958 55.7478 45.9625C55.7644 46.1292 55.7811 46.2875 55.7978 46.4375L56.0728 48.9C56.1228 49.325 56.1853 49.6417 56.2603 49.85C56.3353 50.05 56.4436 50.1917 56.5853 50.275C56.7269 50.35 56.9353 50.3875 57.2103 50.3875H57.4228L57.5103 51.1875L57.4228 52H57.2103ZM57.2832 50.3875H57.9457C58.5624 50.3875 59.0082 50.3167 59.2832 50.175C59.5582 50.025 59.6957 49.8 59.6957 49.5C59.6957 49.3083 59.604 48.9375 59.4207 48.3875C59.2457 47.8375 59.1124 47.4625 59.0207 47.2625L60.1957 46.625C60.354 46.9583 60.5165 47.4167 60.6832 48C60.8582 48.5833 60.9457 49.0917 60.9457 49.525C60.9457 50.3333 60.6874 50.95 60.1707 51.375C59.654 51.7917 58.9124 52 57.9457 52H57.2832V50.3875ZM59.2207 43.9125L59.9332 44.625L60.2832 44.975L59.2207 46.05L58.1582 44.975L59.2207 43.9125ZM64.922 52C64.0136 52 63.372 51.7542 62.997 51.2625C62.622 50.7708 62.4345 50 62.4345 48.95C62.4345 47.9917 62.4053 46.9583 62.347 45.85C62.297 44.7333 62.2261 43.8625 62.1345 43.2375L63.497 42.925C63.5803 43.5167 63.647 44.4125 63.697 45.6125C63.747 46.8042 63.7678 47.8333 63.7595 48.7C63.7511 49.1583 63.772 49.5042 63.822 49.7375C63.872 49.9625 63.9803 50.1292 64.147 50.2375C64.3136 50.3375 64.572 50.3875 64.922 50.3875H64.9845L65.0595 51.1875L64.9845 52H64.922ZM71.8388 50.3875H71.8638C72.1304 50.3875 72.3346 50.3125 72.4763 50.1625C72.6263 50.0042 72.7013 49.7958 72.7013 49.5375C72.7013 49.2875 72.6221 48.9292 72.4638 48.4625C72.3054 47.9875 72.1596 47.5917 72.0263 47.275L73.1763 46.6375C73.3429 46.9958 73.5096 47.4667 73.6763 48.05C73.8513 48.625 73.9388 49.1333 73.9388 49.575C73.9388 50.025 73.8513 50.4333 73.6763 50.8C73.5013 51.1667 73.2554 51.4583 72.9388 51.675C72.6221 51.8917 72.2638 52 71.8638 52H71.8388V50.3875ZM68.4638 50.3875H68.5138C68.9554 50.3875 69.3096 50.1375 69.5763 49.6375C69.7429 49.3125 69.8846 48.8083 70.0013 48.125L71.1763 48.175C71.0763 48.675 71.0263 49.0792 71.0263 49.3875C71.0263 50.0542 71.3013 50.3875 71.8513 50.3875H71.8888L71.9638 51.1875L71.8888 52H71.8513C71.3929 52 71.0138 51.8708 70.7138 51.6125C70.4138 51.3542 70.2096 50.9917 70.1013 50.525L70.3888 50.5125C70.1638 50.9708 69.8888 51.3333 69.5638 51.6C69.2471 51.8667 68.8929 52 68.5013 52H68.4638V50.3875ZM64.9013 52L64.8138 51.1875L64.9013 50.3875H64.9513C65.2263 50.3875 65.4929 50.325 65.7513 50.2C66.0096 50.075 66.2054 49.9208 66.3388 49.7375C66.5138 49.5208 66.6471 49.2833 66.7388 49.025C66.8388 48.7667 66.9221 48.4958 66.9888 48.2125L68.1638 48.3375C68.1638 48.3458 68.1429 48.4417 68.1013 48.625C67.9763 49.1083 67.9138 49.4667 67.9138 49.7C67.9138 49.9333 67.9596 50.1083 68.0513 50.225C68.1429 50.3333 68.2888 50.3875 68.4888 50.3875H68.5138L68.6013 51.1875L68.5138 52H68.4638C68.0971 52 67.7804 51.9 67.5138 51.7C67.2554 51.4917 67.0846 51.2167 67.0013 50.875C66.7346 51.2417 66.4263 51.5208 66.0763 51.7125C65.7263 51.9042 65.3471 52 64.9388 52H64.9013ZM73.3491 54.2625C73.8908 54.0542 74.3866 53.8 74.8366 53.5C75.2866 53.2 75.6408 52.8958 75.8991 52.5875C76.1575 52.2792 76.2866 52.0042 76.2866 51.7625C76.2866 51.5792 76.2366 51.275 76.1366 50.85C76.0366 50.4167 75.9033 49.875 75.7366 49.225C75.67 48.9917 75.6241 48.8167 75.5991 48.7L76.8491 48.2125C77.0408 48.7958 77.195 49.4167 77.3116 50.075C77.4366 50.725 77.4991 51.2875 77.4991 51.7625C77.4991 52.5542 77.1741 53.2917 76.5241 53.975C75.8825 54.6583 75.0408 55.2083 73.9991 55.625L73.3491 54.2625Z" fill="#70747C"/>
</svg>
