<svg xmlns="http://www.w3.org/2000/svg" viewBox="0 0 275.03 54.51"><defs><style>.cls-1{fill:#fff;}.cls-2{fill:#e1082c;}.cls-3{fill:#252627;}</style></defs><title>Zoomit Logo Neegative En 2</title><g id="Layer_2" data-name="Layer 2"><g id="Layer_1-2" data-name="Layer 1"><rect class="cls-1" width="275.03" height="54.51"/><path class="cls-2" d="M28.65,8.1H73.83a0,0,0,0,1,0,0L52.18,32.45H41a0,0,0,0,1,0,0L55.16,16.56a0,0,0,0,0,0,0h-34l7.46-8.42h0"/><polygon class="cls-2" points="53.35 46.4 8.12 46.4 29.82 22.05 41 22.05 26.8 37.98 60.82 37.98 53.35 46.4"/><polygon class="cls-3" points="102.92 17.49 83.68 17.49 88.47 12.16 115.41 12.16 93.83 37.02 113.88 37.02 110.4 42.35 81.34 42.35 102.92 17.49"/><path class="cls-3" d="M126.41,42.35a8.89,8.89,0,0,1-8.88-8.88V21a8.89,8.89,0,0,1,8.88-8.88h12.43A8.88,8.88,0,0,1,147.73,21V33.47a8.88,8.88,0,0,1-8.88,8.88Zm-3.55-8.88A3.55,3.55,0,0,0,126.41,37h12.43a3.55,3.55,0,0,0,3.55-3.55V21a3.55,3.55,0,0,0-3.55-3.55H126.41A3.55,3.55,0,0,0,122.86,21Z"/><path class="cls-3" d="M162.13,42.35a8.88,8.88,0,0,1-8.88-8.88V21a8.88,8.88,0,0,1,8.88-8.88h12.43A8.89,8.89,0,0,1,183.45,21V33.47a8.89,8.89,0,0,1-8.88,8.88Zm-3.55-8.88A3.55,3.55,0,0,0,162.13,37h12.43a3.55,3.55,0,0,0,3.55-3.55V21a3.55,3.55,0,0,0-3.55-3.55H162.13A3.55,3.55,0,0,0,158.58,21Z"/><rect class="cls-3" x="226.62" y="12.16" width="5.33" height="30.2"/><polygon class="cls-3" points="254.48 17.49 254.48 42.35 249.15 42.35 249.15 17.49 236.72 17.49 236.72 12.16 266.92 12.16 266.92 17.49 254.48 17.49"/><polygon class="cls-3" points="215.48 12.16 205 22.34 194.51 12.16 189.01 12.16 189.01 42.36 194.34 42.36 194.34 19.05 205 29.16 215.65 19.05 215.65 42.36 220.98 42.36 220.98 12.16 215.48 12.16"/></g></g></svg>