<svg width="667" height="667" viewBox="0 0 667 667" fill="none" xmlns="http://www.w3.org/2000/svg">
<rect width="667" height="667" fill="#298AFF"/>
<g filter="url(#filter0_d_2_178)">
<path fill-rule="evenodd" clip-rule="evenodd" d="M319.658 186.977C415.828 186.977 497.836 157.035 529.54 115C516.747 156.679 481.347 196.588 443.465 229.48C412.307 229.232 371.151 246.943 334.612 279.152C330.887 282.435 327.305 285.786 323.873 289.187C319.934 285.209 315.793 281.297 311.457 277.475C275.034 245.368 234.023 227.667 202.902 227.801C170.557 199.449 140.281 166.022 124.689 130.809C163.139 164.344 236.046 186.977 319.658 186.977Z" fill="url(#paint0_linear_2_178)"/>
<path d="M535.636 194.314L532.239 184.111L522.687 189.026C511.918 194.568 501.655 199.713 491.771 204.505L489.664 205.527L488.299 207.432C479.188 220.159 468.372 232.528 456.632 244.317L452.659 248.306L454.389 253.666C455.92 258.412 454.835 265.605 449.028 274.185C443.353 282.568 433.882 291.066 421.536 297.498C409.47 303.784 397.357 306.69 387.363 306.666C377.143 306.642 370.489 303.632 367.261 299.812L361.906 293.476L355.051 298.143C346.942 303.662 338.917 309.878 331.115 316.755C328.618 318.956 326.185 321.189 323.819 323.448C321.452 321.189 319.019 318.956 316.522 316.755C309.255 310.35 301.794 304.518 294.254 299.288L287.831 294.834L282.394 300.452C278.886 304.077 272.072 306.801 262.026 306.661C252.191 306.524 240.418 303.604 228.698 297.498C213.781 289.726 203.189 279.018 198.282 269.223L196.073 264.814L120 255.351L132.636 344.895L132.75 345.357C145.782 397.91 159.166 436.594 178.652 469.61C198.203 502.739 198.398 508.207 234.642 537.672L284.049 575.406C256.92 526.548 242.125 498.845 227.106 447.111C242.832 464.711 287.831 531.802 314.158 557.8L314.208 557.839C325.066 566.296 336.423 575.145 349.092 586.477L353.031 590L367.261 580.437C380.151 576.273 387.559 575.561 396.262 570.374C405.315 564.978 406.912 562.559 410.097 552.102L411.789 546.546L407.517 542.617C393.33 529.572 378.787 519.702 365.498 510.683L365.305 510.552C349.343 499.719 335.482 490.255 324.224 477.602C317.538 470.087 311.696 461.347 307.087 450.396C356.355 483.826 391.312 500.953 449.896 511.531L451.126 511.753C453.656 512.21 456.195 511.005 457.441 508.756L463.024 498.677C463.177 498.4 463.354 498.133 463.55 497.885C469.692 490.125 475.017 486.1 480.109 481.342C480.595 480.888 481.147 480.513 481.729 480.192C484.107 478.88 490.677 474.709 494.343 466.985C498.876 457.435 500.937 445.437 500.937 427.825V424.813C500.937 421.657 498.493 419.041 495.345 418.827L492.352 418.623C423.308 413.915 377.619 397.633 310.661 369.357C310.661 369.357 315.827 371.435 375.327 370.805C434.826 370.175 459.005 367.626 533.257 349.582L540.295 347.871L535.636 323.448C535.636 304.996 546.722 285.761 546.995 260.958C547.285 234.557 535.636 194.314 535.636 194.314Z" fill="url(#paint1_linear_2_178)"/>
<path d="M531.949 184.823L535.156 194.453L535.156 194.454L535.157 194.46L535.161 194.471L535.164 194.481L535.188 194.567C535.21 194.644 535.243 194.758 535.285 194.908C535.37 195.208 535.495 195.652 535.654 196.227C535.971 197.377 536.424 199.05 536.967 201.14C538.054 205.32 539.499 211.169 540.935 217.841C543.81 231.195 546.639 247.811 546.495 260.953C546.359 273.284 543.536 284.239 540.731 294.453C540.55 295.109 540.37 295.763 540.191 296.414C537.583 305.866 535.136 314.739 535.136 323.448V323.495L535.145 323.541L539.715 347.498L533.139 349.096C458.92 367.132 434.779 369.676 375.321 370.305C345.576 370.62 329.421 370.258 320.706 369.818C316.349 369.598 313.858 369.358 312.462 369.176C311.765 369.084 311.345 369.008 311.104 368.956C310.984 368.93 310.911 368.911 310.871 368.899C310.852 368.894 310.841 368.89 310.837 368.889L310.841 368.89L310.844 368.891L310.846 368.892C310.846 368.892 310.846 368.892 310.822 368.955L310.466 369.817C377.442 398.101 423.191 414.408 492.318 419.121L495.311 419.325C498.197 419.522 500.437 421.92 500.437 424.813V427.825C500.437 445.404 498.379 457.317 493.891 466.77C490.291 474.356 483.828 478.462 481.488 479.754C480.879 480.09 480.291 480.487 479.768 480.976C478.568 482.098 477.35 483.182 476.107 484.289C472.113 487.845 467.867 491.626 463.158 497.575C462.944 497.845 462.752 498.135 462.586 498.435L457.003 508.514C455.862 510.575 453.534 511.68 451.215 511.261L449.985 511.039C391.487 500.476 356.595 483.384 307.368 449.982L305.972 449.035L306.626 450.59C311.258 461.595 317.13 470.382 323.85 477.934C335.157 490.642 349.072 500.139 365.024 510.966L365.217 511.097L365.217 511.097C378.508 520.118 393.022 529.969 407.178 542.986L411.219 546.701L409.619 551.956C408.025 557.189 406.85 560.329 404.979 562.837C403.113 565.339 400.525 567.251 396.006 569.945C391.704 572.509 387.72 573.969 383.19 575.31C381.578 575.787 379.888 576.251 378.088 576.745C374.848 577.635 371.251 578.622 367.107 579.961L367.04 579.983L366.982 580.022L353.075 589.368L349.426 586.104C336.742 574.759 325.373 565.901 314.515 557.444L314.515 557.444L314.488 557.423C301.359 544.452 283.561 521.226 267.058 499.008C263.194 493.806 259.4 488.658 255.755 483.712C243.843 467.549 233.514 453.533 227.479 446.778L226.626 447.251C241.445 498.296 256.053 525.981 282.45 573.555L234.958 537.284C234.956 537.282 234.954 537.281 234.952 537.279C216.841 522.555 207.77 513.853 200.785 504.711C195.652 497.994 191.644 491.042 186.008 481.266C183.959 477.711 181.694 473.783 179.082 469.356C159.633 436.401 146.263 397.771 133.236 345.236L132.75 345.357L133.236 345.236L133.127 344.8L120.586 255.928L195.746 265.277L197.835 269.447C202.799 279.356 213.478 290.132 228.467 297.941C240.247 304.078 252.096 307.023 262.019 307.161C272.142 307.302 279.114 304.56 282.753 300.8L287.895 295.487L293.969 299.699C301.493 304.917 308.939 310.737 316.191 317.13C318.683 319.327 321.111 321.555 323.473 323.809L323.819 324.139L324.164 323.809C326.526 321.555 328.954 319.327 331.446 317.13C339.232 310.267 347.241 304.063 355.332 298.556L361.815 294.143L366.879 300.135C370.238 304.109 377.061 307.142 387.362 307.166C397.448 307.19 409.64 304.259 421.767 297.941C434.176 291.477 443.714 282.927 449.442 274.465C455.296 265.816 456.461 258.461 454.864 253.512L453.229 248.442L456.986 244.67C468.741 232.866 479.575 220.476 488.706 207.724L489.996 205.921L491.989 204.955C501.878 200.16 512.144 195.014 522.916 189.471L531.949 184.823ZM319.658 187.477C367.792 187.477 412.393 179.984 448.939 167.223C484.19 154.915 511.99 137.69 528.213 117.517C514.817 158.041 480.282 196.828 443.279 228.978C411.979 228.802 370.802 246.585 334.281 278.777C330.678 281.954 327.207 285.193 323.876 288.481C320.035 284.616 316.003 280.815 311.788 277.1C275.383 245.01 234.352 227.238 203.089 227.3C171.445 199.542 141.845 166.962 126.068 132.649C165.067 165.486 237.201 187.477 319.658 187.477Z" stroke="white"/>
</g>
<defs>
<filter id="filter0_d_2_178" x="116" y="115" width="435" height="483" filterUnits="userSpaceOnUse" color-interpolation-filters="sRGB">
<feFlood flood-opacity="0" result="BackgroundImageFix"/>
<feColorMatrix in="SourceAlpha" type="matrix" values="0 0 0 0 0 0 0 0 0 0 0 0 0 0 0 0 0 0 127 0" result="hardAlpha"/>
<feOffset dy="4"/>
<feGaussianBlur stdDeviation="2"/>
<feComposite in2="hardAlpha" operator="out"/>
<feColorMatrix type="matrix" values="0 0 0 0 0 0 0 0 0 0 0 0 0 0 0 0 0 0 0.25 0"/>
<feBlend mode="normal" in2="BackgroundImageFix" result="effect1_dropShadow_2_178"/>
<feBlend mode="normal" in="SourceGraphic" in2="effect1_dropShadow_2_178" result="shape"/>
</filter>
<linearGradient id="paint0_linear_2_178" x1="333.5" y1="115" x2="333.5" y2="590" gradientUnits="userSpaceOnUse">
<stop stop-color="white"/>
<stop offset="1" stop-color="#A5CEFF"/>
</linearGradient>
<linearGradient id="paint1_linear_2_178" x1="333.5" y1="115" x2="333.5" y2="590" gradientUnits="userSpaceOnUse">
<stop stop-color="white"/>
<stop offset="1" stop-color="#A5CEFF"/>
</linearGradient>
</defs>
</svg>
