<svg width="435" height="483" viewBox="0 0 435 483" fill="none" xmlns="http://www.w3.org/2000/svg">
<g filter="url(#filter0_d_2_193)">
<path fill-rule="evenodd" clip-rule="evenodd" d="M203.658 71.9765C299.828 71.9765 381.836 42.0351 413.54 0C400.747 41.6787 365.347 81.5881 327.465 114.48C296.307 114.232 255.151 131.943 218.612 164.152C214.887 167.435 211.305 170.786 207.873 174.187C203.934 170.209 199.793 166.297 195.457 162.475C159.034 130.368 118.023 112.667 86.9015 112.801C54.5571 84.4487 24.2813 51.0215 8.68874 15.8094C47.1395 49.3445 120.046 71.9765 203.658 71.9765Z" fill="url(#paint0_linear_2_193)"/>
<path d="M419.636 79.3135L416.239 69.111L406.687 74.0263C395.918 79.5675 385.655 84.7125 375.771 89.5052L373.664 90.527L372.299 92.4324C363.188 105.159 352.372 117.528 340.632 129.317L336.659 133.306L338.389 138.666C339.92 143.412 338.835 150.605 333.028 159.185C327.353 167.568 317.882 176.066 305.536 182.498C293.47 188.784 281.357 191.69 271.363 191.666C261.143 191.642 254.489 188.632 251.261 184.812L245.906 178.476L239.051 183.143C230.942 188.662 222.917 194.878 215.115 201.755C212.618 203.956 210.185 206.189 207.819 208.448C205.452 206.189 203.019 203.956 200.522 201.755C193.255 195.35 185.794 189.518 178.254 184.288L171.831 179.834L166.394 185.452C162.886 189.077 156.072 191.801 146.026 191.661C136.191 191.524 124.418 188.604 112.698 182.498C97.7808 174.726 87.1886 164.018 82.2823 154.223L80.0735 149.814L4 140.351L16.6359 229.895L16.7504 230.357C29.7821 282.91 43.1659 321.594 62.6515 354.61C82.203 387.739 82.3984 393.207 118.642 422.672L168.049 460.406C140.92 411.548 126.125 383.845 111.106 332.111C126.832 349.711 171.831 416.802 198.158 442.8L198.208 442.839C209.066 451.296 220.423 460.145 233.092 471.477L237.031 475L251.261 465.437C264.151 461.273 271.559 460.561 280.262 455.374C289.315 449.978 290.912 447.559 294.097 437.102L295.789 431.546L291.517 427.617C277.33 414.572 262.787 404.702 249.498 395.683L249.305 395.552C233.343 384.719 219.482 375.255 208.224 362.602C201.538 355.087 195.696 346.347 191.087 335.396C240.355 368.826 275.312 385.953 333.896 396.531L335.126 396.753C337.656 397.21 340.195 396.005 341.441 393.756L347.024 383.677C347.177 383.4 347.354 383.133 347.55 382.885C353.692 375.125 359.017 371.1 364.109 366.342C364.595 365.888 365.147 365.513 365.729 365.192C368.107 363.88 374.677 359.709 378.343 351.985C382.876 342.435 384.937 330.437 384.937 312.825V309.813C384.937 306.657 382.493 304.041 379.345 303.827L376.352 303.623C307.308 298.915 261.619 282.633 194.661 254.357C194.661 254.357 199.827 256.435 259.327 255.805C318.826 255.175 343.005 252.626 417.257 234.582L424.295 232.871L419.636 208.448C419.636 189.996 430.722 170.761 430.995 145.958C431.285 119.557 419.636 79.3135 419.636 79.3135Z" fill="url(#paint1_linear_2_193)"/>
<path d="M415.949 69.8226L419.156 79.4529L419.156 79.4542L419.157 79.4596L419.161 79.4715L419.164 79.4811L419.188 79.5674C419.21 79.6439 419.243 79.758 419.285 79.9081C419.37 80.2083 419.495 80.6525 419.654 81.2274C419.971 82.3772 420.424 84.0499 420.967 86.1399C422.054 90.3201 423.499 96.1686 424.935 102.841C427.81 116.195 430.639 132.811 430.495 145.953C430.359 158.284 427.536 169.239 424.731 179.453C424.55 180.109 424.37 180.763 424.191 181.414C421.583 190.866 419.136 199.739 419.136 208.448V208.495L419.145 208.541L423.715 232.498L417.139 234.096C342.92 252.132 318.779 254.676 259.321 255.305C229.576 255.62 213.421 255.258 204.706 254.818C200.349 254.598 197.858 254.358 196.462 254.176C195.765 254.084 195.345 254.008 195.104 253.956C194.984 253.93 194.911 253.911 194.871 253.899C194.852 253.894 194.841 253.89 194.837 253.889L194.841 253.89L194.844 253.891L194.846 253.892C194.846 253.892 194.846 253.892 194.822 253.955L194.466 254.817C261.442 283.101 307.191 299.408 376.318 304.121L379.311 304.325C382.197 304.522 384.437 306.92 384.437 309.813V312.825C384.437 330.404 382.379 342.317 377.891 351.77C374.291 359.356 367.828 363.462 365.488 364.754C364.879 365.09 364.291 365.487 363.768 365.976C362.568 367.098 361.35 368.182 360.107 369.289C356.113 372.845 351.867 376.626 347.158 382.575C346.944 382.845 346.752 383.135 346.586 383.435L341.003 393.514C339.862 395.575 337.534 396.68 335.215 396.261L333.985 396.039C275.487 385.476 240.595 368.384 191.368 334.982L189.972 334.035L190.626 335.59C195.258 346.595 201.13 355.382 207.85 362.934C219.157 375.642 233.072 385.139 249.024 395.966L249.217 396.097L249.217 396.097C262.508 405.118 277.022 414.969 291.178 427.986L295.219 431.701L293.619 436.956C292.025 442.189 290.85 445.329 288.979 447.837C287.113 450.339 284.525 452.251 280.006 454.945C275.704 457.509 271.72 458.969 267.19 460.31C265.578 460.787 263.888 461.251 262.088 461.745C258.848 462.635 255.251 463.622 251.107 464.961L251.04 464.983L250.982 465.022L237.075 474.368L233.426 471.104C220.742 459.759 209.373 450.901 198.515 442.444L198.515 442.444L198.488 442.423C185.359 429.452 167.561 406.226 151.058 384.008C147.194 378.806 143.4 373.658 139.755 368.712C127.843 352.549 117.514 338.533 111.479 331.778L110.626 332.251C125.445 383.296 140.053 410.981 166.45 458.555L118.958 422.284C118.956 422.282 118.954 422.281 118.952 422.279C100.841 407.555 91.7701 398.853 84.7845 389.711C79.652 382.994 75.6438 376.042 70.0084 366.266C67.959 362.711 65.6943 358.783 63.0821 354.356C43.6327 321.401 30.263 282.771 17.2357 230.236L16.7504 230.357L17.2357 230.236L17.1274 229.8L4.58635 140.928L79.7462 150.277L81.8352 154.447C86.7985 164.356 97.4782 175.132 112.467 182.941C124.247 189.078 136.096 192.023 146.019 192.161C156.142 192.302 163.114 189.56 166.753 185.8L171.895 180.487L177.969 184.699C185.493 189.917 192.939 195.737 200.191 202.13C202.683 204.327 205.111 206.555 207.473 208.809L207.819 209.139L208.164 208.809C210.526 206.555 212.954 204.327 215.446 202.13C223.232 195.267 231.241 189.063 239.332 183.556L245.815 179.143L250.879 185.135C254.238 189.109 261.061 192.142 271.362 192.166C281.448 192.19 293.64 189.259 305.767 182.941C318.176 176.477 327.714 167.927 333.442 159.465C339.296 150.816 340.461 143.461 338.864 138.512L337.229 133.442L340.986 129.67C352.741 117.866 363.575 105.476 372.706 92.7235L373.996 90.9215L375.989 89.9551C385.878 85.1604 396.144 80.0136 406.916 74.4709L415.949 69.8226ZM203.658 72.4765C251.792 72.4765 296.393 64.9838 332.939 52.2235C368.19 39.9151 395.99 22.6896 412.213 2.51668C398.817 43.0414 364.282 81.8285 327.279 113.978C295.979 113.802 254.802 131.585 218.281 163.777C214.678 166.954 211.207 170.193 207.876 173.481C204.035 169.616 200.003 165.815 195.788 162.1C159.383 130.01 118.352 112.238 87.089 112.3C55.4452 84.5424 25.8447 51.9624 10.0677 17.6494C49.0672 50.4862 121.201 72.4765 203.658 72.4765Z" stroke="white"/>
</g>
<defs>
<filter id="filter0_d_2_193" x="0" y="0" width="435" height="483" filterUnits="userSpaceOnUse" color-interpolation-filters="sRGB">
<feFlood flood-opacity="0" result="BackgroundImageFix"/>
<feColorMatrix in="SourceAlpha" type="matrix" values="0 0 0 0 0 0 0 0 0 0 0 0 0 0 0 0 0 0 127 0" result="hardAlpha"/>
<feOffset dy="4"/>
<feGaussianBlur stdDeviation="2"/>
<feComposite in2="hardAlpha" operator="out"/>
<feColorMatrix type="matrix" values="0 0 0 0 0 0 0 0 0 0 0 0 0 0 0 0 0 0 0.25 0"/>
<feBlend mode="normal" in2="BackgroundImageFix" result="effect1_dropShadow_2_193"/>
<feBlend mode="normal" in="SourceGraphic" in2="effect1_dropShadow_2_193" result="shape"/>
</filter>
<linearGradient id="paint0_linear_2_193" x1="217.5" y1="0" x2="217.5" y2="475" gradientUnits="userSpaceOnUse">
<stop stop-color="white"/>
<stop offset="1" stop-color="#A5CEFF"/>
</linearGradient>
<linearGradient id="paint1_linear_2_193" x1="217.5" y1="0" x2="217.5" y2="475" gradientUnits="userSpaceOnUse">
<stop stop-color="white"/>
<stop offset="1" stop-color="#A5CEFF"/>
</linearGradient>
</defs>
</svg>
